<svg xmlns="http://www.w3.org/2000/svg" width="1920" height="1024" preserveAspectRatio="none"><g mask="url(&quot;#SvgjsMask1079&quot;)" fill="none"><path fill="rgba(29, 34, 50, 1)" d="M0 0h1920v1024H0z"/><path d="M745 41l352-352" stroke-width="6" stroke="url(#SvgjsLinearGradient1080)" stroke-linecap="round" class="TopRight"/><path d="M1367 976l599-599" stroke-width="10" stroke="url(#SvgjsLinearGradient1080)" stroke-linecap="round" class="TopRight"/><path d="M659 600L281 978" stroke-width="10" stroke="url(#SvgjsLinearGradient1081)" stroke-linecap="round" class="BottomLeft"/><path d="M1494 209l725-725" stroke-width="6" stroke="url(#SvgjsLinearGradient1080)" stroke-linecap="round" class="TopRight"/><path d="M756 75L485 346" stroke-width="8" stroke="url(#SvgjsLinearGradient1081)" stroke-linecap="round" class="BottomLeft"/><path d="M1444 683l-538 538" stroke-width="10" stroke="url(#SvgjsLinearGradient1081)" stroke-linecap="round" class="BottomLeft"/><path d="M350 990l737-737" stroke-width="10" stroke="url(#SvgjsLinearGradient1080)" stroke-linecap="round" class="TopRight"/><path d="M1134 636l-511 511" stroke-width="8" stroke="url(#SvgjsLinearGradient1080)" stroke-linecap="round" class="TopRight"/><path d="M1901 47l-742 742" stroke-width="10" stroke="url(#SvgjsLinearGradient1080)" stroke-linecap="round" class="TopRight"/><path d="M1109 968l364-364" stroke-width="8" stroke="url(#SvgjsLinearGradient1081)" stroke-linecap="round" class="BottomLeft"/><path d="M987 842l-716 716M801 304L180 925" stroke-width="8" stroke="url(#SvgjsLinearGradient1080)" stroke-linecap="round" class="TopRight"/><path d="M957 996l-403 403" stroke-width="10" stroke="url(#SvgjsLinearGradient1080)" stroke-linecap="round" class="TopRight"/><path d="M1251 764l-705 705" stroke-width="8" stroke="url(#SvgjsLinearGradient1081)" stroke-linecap="round" class="BottomLeft"/><path d="M1628 90l-376 376m-166-289l452-452" stroke-width="10" stroke="url(#SvgjsLinearGradient1080)" stroke-linecap="round" class="TopRight"/><path d="M1009 525l296-296" stroke-width="6" stroke="url(#SvgjsLinearGradient1080)" stroke-linecap="round" class="TopRight"/><path d="M1474 579l268-268M559 357l492-492" stroke-width="10" stroke="url(#SvgjsLinearGradient1081)" stroke-linecap="round" class="BottomLeft"/><path d="M428 998l372-372" stroke-width="10" stroke="url(#SvgjsLinearGradient1080)" stroke-linecap="round" class="TopRight"/><path d="M1431 118L965 584" stroke-width="10" stroke="url(#SvgjsLinearGradient1081)" stroke-linecap="round" class="BottomLeft"/><path d="M927 319L647 599" stroke-width="6" stroke="url(#SvgjsLinearGradient1080)" stroke-linecap="round" class="TopRight"/><path d="M738 502l543-543m394 365l351-351M661 208L150 719" stroke-width="8" stroke="url(#SvgjsLinearGradient1081)" stroke-linecap="round" class="BottomLeft"/><path d="M1462 346l-391 391" stroke-width="10" stroke="url(#SvgjsLinearGradient1081)" stroke-linecap="round" class="BottomLeft"/><path d="M92 632l436-436" stroke-width="8" stroke="url(#SvgjsLinearGradient1081)" stroke-linecap="round" class="BottomLeft"/><path d="M1001 477l-667 667" stroke-width="10" stroke="url(#SvgjsLinearGradient1081)" stroke-linecap="round" class="BottomLeft"/><path d="M753 759l524-524" stroke-width="8" stroke="url(#SvgjsLinearGradient1081)" stroke-linecap="round" class="BottomLeft"/><path d="M43 965l-548 548" stroke-width="6" stroke="url(#SvgjsLinearGradient1080)" stroke-linecap="round" class="TopRight"/><path d="M349 789l302-302" stroke-width="10" stroke="url(#SvgjsLinearGradient1080)" stroke-linecap="round" class="TopRight"/><path d="M1476 13l-331 331" stroke-width="8" stroke="url(#SvgjsLinearGradient1080)" stroke-linecap="round" class="TopRight"/><path d="M546 261l533-533" stroke-width="6" stroke="url(#SvgjsLinearGradient1080)" stroke-linecap="round" class="TopRight"/><path d="M217 1019l-712 712" stroke-width="10" stroke="url(#SvgjsLinearGradient1081)" stroke-linecap="round" class="BottomLeft"/><path d="M1820 96l-563 563" stroke-width="6" stroke="url(#SvgjsLinearGradient1080)" stroke-linecap="round" class="TopRight"/><path d="M1596 159l-552 552" stroke-width="6" stroke="url(#SvgjsLinearGradient1081)" stroke-linecap="round" class="BottomLeft"/><path d="M57 693l-679 679M504 742l445-445" stroke-width="8" stroke="url(#SvgjsLinearGradient1080)" stroke-linecap="round" class="TopRight"/><path d="M506 916l597-597" stroke-width="8" stroke="url(#SvgjsLinearGradient1081)" stroke-linecap="round" class="BottomLeft"/><path d="M1814 92l391-391" stroke-width="8" stroke="url(#SvgjsLinearGradient1080)" stroke-linecap="round" class="TopRight"/><path d="M210 311l-356 356" stroke-width="6" stroke="url(#SvgjsLinearGradient1081)" stroke-linecap="round" class="BottomLeft"/><path d="M979 99L595 483" stroke-width="6" stroke="url(#SvgjsLinearGradient1080)" stroke-linecap="round" class="TopRight"/><path d="M1208 473L813 868M364 198L-80 642" stroke-width="8" stroke="url(#SvgjsLinearGradient1081)" stroke-linecap="round" class="BottomLeft"/><path d="M433 515l569-569" stroke-width="6" stroke="url(#SvgjsLinearGradient1080)" stroke-linecap="round" class="TopRight"/><path d="M1384 785l-682 682" stroke-width="8" stroke="url(#SvgjsLinearGradient1080)" stroke-linecap="round" class="TopRight"/><path d="M248 343l-563 563m1585-401l748-748" stroke-width="10" stroke="url(#SvgjsLinearGradient1081)" stroke-linecap="round" class="BottomLeft"/><path d="M110 160l-705 705" stroke-width="8" stroke="url(#SvgjsLinearGradient1080)" stroke-linecap="round" class="TopRight"/><path d="M1181 945l470-470m200 491l376-376" stroke-width="6" stroke="url(#SvgjsLinearGradient1081)" stroke-linecap="round" class="BottomLeft"/><path d="M230 987l-520 520" stroke-width="10" stroke="url(#SvgjsLinearGradient1081)" stroke-linecap="round" class="BottomLeft"/><path d="M1571 844l-674 674" stroke-width="6" stroke="url(#SvgjsLinearGradient1081)" stroke-linecap="round" class="BottomLeft"/><path d="M1367 729l398-398" stroke-width="10" stroke="url(#SvgjsLinearGradient1080)" stroke-linecap="round" class="TopRight"/><path d="M1161 602L868 895" stroke-width="10" stroke="url(#SvgjsLinearGradient1081)" stroke-linecap="round" class="BottomLeft"/></g><defs><linearGradient x1="0%" y1="100%" x2="100%" y2="0%" id="SvgjsLinearGradient1080"><stop stop-color="rgba(16, 54, 93, 0)" offset="0"/><stop stop-color="rgba(16, 54, 93, 1)" offset="1"/></linearGradient><linearGradient x1="100%" y1="0%" x2="0%" y2="100%" id="SvgjsLinearGradient1081"><stop stop-color="rgba(16, 54, 93, 0)" offset="0"/><stop stop-color="rgba(16, 54, 93, 1)" offset="1"/></linearGradient><mask id="SvgjsMask1079"><path fill="#fff" d="M0 0h1920v1024H0z"/></mask></defs></svg>