<svg version="1.1" id="Layer_1" xmlns="http://www.w3.org/2000/svg" x="0" y="0" viewBox="0 0 79.68 21.26" xml:space="preserve"><style>.st0{fill:#fff}</style><path class="st0" d="M39.58 3.2H36.7v15.26h10.73V15.8h-7.85zm9.77-.05h11.5v2.79h-11.5zm0 6.2h11.5v2.79h-11.5zm0 6.21h11.5v2.79h-11.5zM23.74 3.21h10.94V6H23.74zm0 6.79v8.47h2.79v-5.68h8.15V10h-8.15zm38.74-6.76l5.45 7.52-5.45 7.71h3.23l3.9-5.39 3.9 5.39h3.23L65.79 3.2l-3.31.04zm14.26 0l-3.32-.04-2.76 3.84 1.59 2.39zM15.66 9.55c-.23.23-.41.52-.52.82-.11.31-.15.64-.12.97l-.01-.01a2.638 2.638 0 01-.77 2.11c-.27.27-.6.48-.97.62-.36.13-.75.18-1.14.15l.01.01c-.46-.04-.92.06-1.33.29-.4.23-.72.58-.92 1-.2.42-.26.89-.18 1.35.08.46.3.88.63 1.2a2.24 2.24 0 002.55.45c.42-.2.77-.52 1-.92.23-.4.33-.87.29-1.33l.01.01a2.638 2.638 0 01.77-2.11c.27-.27.6-.48.97-.62.36-.13.75-.18 1.14-.15l-.01-.01c.38.03.76-.03 1.1-.18a2.262 2.262 0 001.32-1.72c.06-.37.02-.76-.11-1.11-.13-.36-.35-.67-.63-.92s-.63-.42-1-.5a2.24 2.24 0 00-1.12.04c-.36.09-.69.29-.96.56zm-4.52 3.22l-.01-.01c.33.03.66-.01.97-.12.31-.11.59-.29.83-.52.23-.23.41-.51.52-.82.11-.31.15-.64.12-.97l.01.01a2.638 2.638 0 01.77-2.11c.27-.27.6-.48.97-.62.36-.13.75-.18 1.14-.15l-.01-.01c.46.04.92-.06 1.33-.29.4-.23.72-.58.92-1 .2-.42.26-.89.18-1.35-.08-.46-.3-.88-.63-1.2a2.24 2.24 0 00-2.55-.45c-.42.2-.77.52-1 .92-.23.4-.33.87-.29 1.33h-.01a2.638 2.638 0 01-.77 2.11c-.27.27-.6.48-.97.62-.36.13-.75.18-1.14.15l.01.01c-.33-.03-.66.01-.97.12-.3.1-.58.28-.82.51-.23.24-.41.52-.52.83-.11.31-.15.64-.12.97l-.01-.01a2.638 2.638 0 01-.77 2.11c-.27.27-.6.48-.97.62-.36.13-.75.18-1.14.15l.01.01c-.46-.04-.92.06-1.33.29-.4.23-.72.58-.92 1-.2.42-.26.89-.18 1.35.08.46.3.88.63 1.2a2.24 2.24 0 002.55.45c.42-.2.77-.52 1-.92.23-.4.33-.87.29-1.33l.01.01a2.638 2.638 0 01.77-2.11c.27-.27.6-.48.97-.62.36-.14.75-.19 1.13-.16z"/><path class="st0" d="M7.04 11.54c.23-.23.41-.52.52-.82.11-.31.15-.64.12-.97l.01.01c-.03-.39.02-.78.16-1.14.13-.36.34-.69.62-.97.27-.27.6-.48.97-.62.36-.13.75-.18 1.14-.15l-.01-.01c.46.04.92-.06 1.33-.29.4-.23.72-.58.92-1 .2-.42.26-.89.18-1.34-.08-.46-.3-.88-.63-1.2s-.75-.55-1.2-.63c-.47-.07-.94-.01-1.36.19-.42.2-.77.52-1 .92-.23.4-.33.87-.29 1.33l-.01-.02c.03.39-.02.77-.15 1.14-.13.36-.34.69-.61.97-.27.27-.6.48-.97.62-.37.13-.75.18-1.14.15l.01.01c-.37-.04-.75.02-1.1.18-.35.15-.65.38-.88.68-.23.3-.38.65-.44 1.03-.06.37-.02.76.11 1.11.13.36.35.67.63.92s.63.42 1 .5c.37.08.75.07 1.12-.04.36-.1.69-.29.95-.56z"/></svg>